<mxfile host="app.diagrams.net" modified="2020-12-30T12:49:16.391Z" agent="5.0 (Windows NT 10.0; Win64; x64) AppleWebKit/537.36 (KHTML, like Gecko) Chrome/87.0.4280.88 Safari/537.36" etag="eCmcKiMxgsO2B2nxWlaM" version="14.1.4" type="github" pages="2">
  <diagram id="yvoPdxW38xUAE_G0r4dE" name="Info">
    <mxGraphModel dx="2062" dy="1122" grid="1" gridSize="10" guides="1" tooltips="1" connect="1" arrows="1" fold="1" page="1" pageScale="1" pageWidth="1100" pageHeight="850" math="0" shadow="0">
      <root>
        <mxCell id="0" />
        <mxCell id="1" parent="0" />
        <mxCell id="ACMriSwnBvBJesoaTRhO-2" value="&lt;h1 style=&quot;color: rgb(0 , 0 , 0) ; font-family: &amp;#34;helvetica&amp;#34; ; font-style: normal ; letter-spacing: normal ; text-align: left ; text-indent: 0px ; text-transform: none ; word-spacing: 0px ; background-color: rgb(248 , 249 , 250)&quot;&gt;&lt;font style=&quot;font-size: 20px&quot;&gt;GitHub Link:&amp;nbsp;&lt;a href=&quot;https://github.com/RMSLowside/rmslow/tree/master/Drawings/NotificationService&quot;&gt;https://github.com/RMSLowside/rmslow/tree/master/Drawings/NotificationService&lt;/a&gt;&lt;/font&gt;&lt;/h1&gt;" style="text;whiteSpace=wrap;html=1;" parent="1" vertex="1">
          <mxGeometry x="30" y="70" width="920" height="60" as="geometry" />
        </mxCell>
      </root>
    </mxGraphModel>
  </diagram>
  <diagram id="uFDXrdoMcbQE_zLRZp2q" name="NotificationServiceUi">
    <mxGraphModel dx="2062" dy="1122" grid="1" gridSize="10" guides="1" tooltips="1" connect="1" arrows="1" fold="1" page="1" pageScale="1" pageWidth="1100" pageHeight="850" math="0" shadow="0">
      <root>
        <mxCell id="o-kv4E1F0-MMt4d27I2c-0" />
        <mxCell id="o-kv4E1F0-MMt4d27I2c-1" parent="o-kv4E1F0-MMt4d27I2c-0" />
        <mxCell id="DFqRTnD5uFk7oRwz69hL-18" value="" style="html=1;shadow=0;dashed=0;shape=mxgraph.bootstrap.rrect;rSize=5;strokeColor=#DFDFDF;html=1;whiteSpace=wrap;fontColor=#495057;container=0;" vertex="1" parent="o-kv4E1F0-MMt4d27I2c-1">
          <mxGeometry width="1100" height="850" as="geometry" />
        </mxCell>
        <mxCell id="DFqRTnD5uFk7oRwz69hL-3" value="" style="rounded=0;whiteSpace=wrap;html=1;fillColor=#F8F9FA;" vertex="1" parent="o-kv4E1F0-MMt4d27I2c-1">
          <mxGeometry y="81" width="1100" height="39" as="geometry" />
        </mxCell>
        <mxCell id="DFqRTnD5uFk7oRwz69hL-4" value="" style="rounded=0;whiteSpace=wrap;html=1;fillColor=#3333FF;" vertex="1" parent="o-kv4E1F0-MMt4d27I2c-1">
          <mxGeometry y="20" width="1100" height="61" as="geometry" />
        </mxCell>
        <mxCell id="DFqRTnD5uFk7oRwz69hL-5" value="&lt;font style=&quot;font-size: 14px&quot;&gt;FEEDBACK&lt;/font&gt;" style="rounded=1;whiteSpace=wrap;html=1;fillColor=#FF8000;strokeColor=#FF8000;fontColor=#FFFFFF;" vertex="1" parent="o-kv4E1F0-MMt4d27I2c-1">
          <mxGeometry x="970" y="30.5" width="120" height="40" as="geometry" />
        </mxCell>
        <mxCell id="DFqRTnD5uFk7oRwz69hL-6" value="" style="shape=image;html=1;verticalAlign=top;verticalLabelPosition=bottom;labelBackgroundColor=#ffffff;imageAspect=0;aspect=fixed;image=https://cdn3.iconfinder.com/data/icons/social-media-2125/78/bell-128.png;strokeColor=#FF8000;fillColor=#FF8000;fontColor=#FFFFFF;" vertex="1" parent="o-kv4E1F0-MMt4d27I2c-1">
          <mxGeometry x="920" y="32" width="37" height="37" as="geometry" />
        </mxCell>
        <mxCell id="DFqRTnD5uFk7oRwz69hL-7" value="" style="whiteSpace=wrap;html=1;shape=mxgraph.basic.octagon2;align=center;verticalAlign=middle;dx=12;shadow=0;sketch=0;fontSize=20;fontColor=#808080;fillColor=#FF8000;strokeColor=#FF8000;" vertex="1" parent="o-kv4E1F0-MMt4d27I2c-1">
          <mxGeometry x="10" y="26.5" width="56" height="42" as="geometry" />
        </mxCell>
        <mxCell id="DFqRTnD5uFk7oRwz69hL-8" value="Notification Service" style="text;html=1;strokeColor=none;fillColor=none;align=center;verticalAlign=middle;whiteSpace=wrap;rounded=0;shadow=0;sketch=0;fontSize=20;fontColor=#FFFFFF;fontStyle=1" vertex="1" parent="o-kv4E1F0-MMt4d27I2c-1">
          <mxGeometry x="76" y="40" width="214" height="20" as="geometry" />
        </mxCell>
        <mxCell id="DFqRTnD5uFk7oRwz69hL-9" value="" style="html=1;verticalLabelPosition=bottom;align=center;labelBackgroundColor=#ffffff;verticalAlign=top;strokeWidth=2;shadow=0;dashed=0;shape=mxgraph.ios7.icons.user;sketch=0;fontSize=20;fontColor=#FFFFFF;fillColor=#FFFFFF;" vertex="1" parent="o-kv4E1F0-MMt4d27I2c-1">
          <mxGeometry x="790" y="35.5" width="30" height="30" as="geometry" />
        </mxCell>
        <mxCell id="DFqRTnD5uFk7oRwz69hL-10" value="John Doe" style="text;html=1;strokeColor=none;fillColor=none;align=center;verticalAlign=middle;whiteSpace=wrap;rounded=0;shadow=0;sketch=0;fontSize=19;fontColor=#FFFFFF;" vertex="1" parent="o-kv4E1F0-MMt4d27I2c-1">
          <mxGeometry x="820" y="40.5" width="94" height="20" as="geometry" />
        </mxCell>
        <mxCell id="DFqRTnD5uFk7oRwz69hL-39" value="&amp;nbsp; &amp;nbsp; Notification &amp;gt; List View" style="text;html=1;strokeColor=none;fillColor=none;align=left;verticalAlign=middle;whiteSpace=wrap;rounded=0;labelPosition=center;verticalLabelPosition=middle;fontSize=16;fontStyle=1;" vertex="1" parent="o-kv4E1F0-MMt4d27I2c-1">
          <mxGeometry y="81" width="290" height="40" as="geometry" />
        </mxCell>
        <mxCell id="DFqRTnD5uFk7oRwz69hL-42" value="" style="shape=ellipse;dashed=0;strokeColor=none;shadow=1;fontSize=13;align=center;verticalAlign=top;labelPosition=center;verticalLabelPosition=bottom;html=1;aspect=fixed;fillColor=#F8F9FA;" vertex="1" parent="o-kv4E1F0-MMt4d27I2c-1">
          <mxGeometry x="1040" y="85.5" width="30" height="30" as="geometry" />
        </mxCell>
        <mxCell id="DFqRTnD5uFk7oRwz69hL-43" value="" style="dashed=0;html=1;shape=mxgraph.gmdl.x;strokeColor=#737373;strokeWidth=2;shadow=0;" vertex="1" parent="DFqRTnD5uFk7oRwz69hL-42">
          <mxGeometry x="10.714285714285714" y="10.714285714285714" width="8.571428571428571" height="8.571428571428571" as="geometry" />
        </mxCell>
        <mxCell id="DFqRTnD5uFk7oRwz69hL-46" value="&amp;lt;Classification Here&amp;gt;" style="rounded=0;whiteSpace=wrap;html=1;shadow=0;sketch=0;fontSize=12;align=center;fillColor=#FFFF33;" vertex="1" parent="o-kv4E1F0-MMt4d27I2c-1">
          <mxGeometry width="1100" height="20" as="geometry" />
        </mxCell>
        <mxCell id="DFqRTnD5uFk7oRwz69hL-47" value="" style="html=1;shadow=0;dashed=0;shape=mxgraph.bootstrap.rrect;rSize=5;strokeColor=#DEE2E6;html=1;whiteSpace=wrap;fillColor=#ffffff;fontColor=#0085FC;fontSize=14;" vertex="1" parent="o-kv4E1F0-MMt4d27I2c-1">
          <mxGeometry x="900" y="810" width="187" height="25" as="geometry" />
        </mxCell>
        <mxCell id="DFqRTnD5uFk7oRwz69hL-48" value="Previous" style="strokeColor=inherit;fillColor=inherit;gradientColor=inherit;html=1;shadow=0;dashed=0;shape=mxgraph.bootstrap.leftButton;rSize=5;perimeter=none;whiteSpace=wrap;resizeHeight=1;fontColor=#6C767D;fontSize=14;" vertex="1" parent="DFqRTnD5uFk7oRwz69hL-47">
          <mxGeometry width="70" height="25" relative="1" as="geometry" />
        </mxCell>
        <mxCell id="DFqRTnD5uFk7oRwz69hL-49" value="1" style="strokeColor=inherit;fillColor=inherit;gradientColor=inherit;fontColor=inherit;html=1;shadow=0;dashed=0;perimeter=none;whiteSpace=wrap;resizeHeight=1;fontSize=14;" vertex="1" parent="DFqRTnD5uFk7oRwz69hL-47">
          <mxGeometry width="30" height="25" relative="1" as="geometry">
            <mxPoint x="70" as="offset" />
          </mxGeometry>
        </mxCell>
        <mxCell id="DFqRTnD5uFk7oRwz69hL-50" value="2" style="html=1;shadow=0;dashed=0;perimeter=none;whiteSpace=wrap;resizeHeight=1;fillColor=#0085FC;strokeColor=none;fontColor=#ffffff;fontSize=14;" vertex="1" parent="DFqRTnD5uFk7oRwz69hL-47">
          <mxGeometry width="30" height="25" relative="1" as="geometry">
            <mxPoint x="100" as="offset" />
          </mxGeometry>
        </mxCell>
        <mxCell id="DFqRTnD5uFk7oRwz69hL-51" value="3" style="strokeColor=inherit;fillColor=inherit;gradientColor=inherit;fontColor=inherit;html=1;shadow=0;dashed=0;perimeter=none;whiteSpace=wrap;resizeHeight=1;fontSize=14;" vertex="1" parent="DFqRTnD5uFk7oRwz69hL-47">
          <mxGeometry width="30" height="25" relative="1" as="geometry">
            <mxPoint x="130" as="offset" />
          </mxGeometry>
        </mxCell>
        <mxCell id="DFqRTnD5uFk7oRwz69hL-52" value="Next" style="strokeColor=inherit;fillColor=inherit;gradientColor=inherit;fontColor=inherit;html=1;shadow=0;dashed=0;shape=mxgraph.bootstrap.rightButton;rSize=5;perimeter=none;whiteSpace=wrap;resizeHeight=1;fontSize=14;" vertex="1" parent="DFqRTnD5uFk7oRwz69hL-47">
          <mxGeometry x="1" width="60" height="25" relative="1" as="geometry">
            <mxPoint x="-60" as="offset" />
          </mxGeometry>
        </mxCell>
        <mxCell id="DFqRTnD5uFk7oRwz69hL-74" value="" style="rounded=0;whiteSpace=wrap;html=1;fillColor=#F8F9FA;strokeColor=#E6E6E6;fontColor=#000000;" vertex="1" parent="o-kv4E1F0-MMt4d27I2c-1">
          <mxGeometry y="200" width="1100" height="650" as="geometry" />
        </mxCell>
        <mxCell id="DFqRTnD5uFk7oRwz69hL-120" value="" style="html=1;shadow=0;dashed=0;shape=mxgraph.bootstrap.rrect;rSize=5;strokeColor=#DEE2E6;html=1;whiteSpace=wrap;fillColor=#ffffff;fontColor=#0085FC;fontSize=14;" vertex="1" parent="o-kv4E1F0-MMt4d27I2c-1">
          <mxGeometry x="110" y="810" width="187" height="25" as="geometry" />
        </mxCell>
        <mxCell id="DFqRTnD5uFk7oRwz69hL-121" value="Previous" style="strokeColor=inherit;fillColor=inherit;gradientColor=inherit;html=1;shadow=0;dashed=0;shape=mxgraph.bootstrap.leftButton;rSize=5;perimeter=none;whiteSpace=wrap;resizeHeight=1;fontColor=#6C767D;fontSize=14;" vertex="1" parent="DFqRTnD5uFk7oRwz69hL-120">
          <mxGeometry width="70" height="25" relative="1" as="geometry" />
        </mxCell>
        <mxCell id="DFqRTnD5uFk7oRwz69hL-122" value="1" style="strokeColor=inherit;fillColor=inherit;gradientColor=inherit;fontColor=inherit;html=1;shadow=0;dashed=0;perimeter=none;whiteSpace=wrap;resizeHeight=1;fontSize=14;" vertex="1" parent="DFqRTnD5uFk7oRwz69hL-120">
          <mxGeometry width="30" height="25" relative="1" as="geometry">
            <mxPoint x="70" as="offset" />
          </mxGeometry>
        </mxCell>
        <mxCell id="DFqRTnD5uFk7oRwz69hL-123" value="2" style="html=1;shadow=0;dashed=0;perimeter=none;whiteSpace=wrap;resizeHeight=1;fillColor=#0085FC;strokeColor=none;fontColor=#ffffff;fontSize=14;" vertex="1" parent="DFqRTnD5uFk7oRwz69hL-120">
          <mxGeometry width="30" height="25" relative="1" as="geometry">
            <mxPoint x="100" as="offset" />
          </mxGeometry>
        </mxCell>
        <mxCell id="DFqRTnD5uFk7oRwz69hL-124" value="3" style="strokeColor=inherit;fillColor=inherit;gradientColor=inherit;fontColor=inherit;html=1;shadow=0;dashed=0;perimeter=none;whiteSpace=wrap;resizeHeight=1;fontSize=14;" vertex="1" parent="DFqRTnD5uFk7oRwz69hL-120">
          <mxGeometry width="30" height="25" relative="1" as="geometry">
            <mxPoint x="130" as="offset" />
          </mxGeometry>
        </mxCell>
        <mxCell id="DFqRTnD5uFk7oRwz69hL-125" value="Next" style="strokeColor=inherit;fillColor=inherit;gradientColor=inherit;fontColor=inherit;html=1;shadow=0;dashed=0;shape=mxgraph.bootstrap.rightButton;rSize=5;perimeter=none;whiteSpace=wrap;resizeHeight=1;fontSize=14;" vertex="1" parent="DFqRTnD5uFk7oRwz69hL-120">
          <mxGeometry x="1" width="60" height="25" relative="1" as="geometry">
            <mxPoint x="-60" as="offset" />
          </mxGeometry>
        </mxCell>
        <mxCell id="DFqRTnD5uFk7oRwz69hL-126" value="Fav:" style="text;html=1;strokeColor=none;fillColor=none;align=center;verticalAlign=middle;whiteSpace=wrap;rounded=0;shadow=0;sketch=0;fontSize=10;fontColor=#FFFFFF;" vertex="1" parent="o-kv4E1F0-MMt4d27I2c-1">
          <mxGeometry x="930" y="91" width="40" height="20" as="geometry" />
        </mxCell>
        <mxCell id="DFqRTnD5uFk7oRwz69hL-135" value="" style="rounded=0;whiteSpace=wrap;html=1;fontSize=20;align=left;fillColor=#3333FF;strokeColor=#E6E6E6;" vertex="1" parent="o-kv4E1F0-MMt4d27I2c-1">
          <mxGeometry y="200" width="310" height="40" as="geometry" />
        </mxCell>
        <mxCell id="DFqRTnD5uFk7oRwz69hL-136" value="" style="html=1;shadow=0;dashed=0;fillColor=#F8F9FA;strokeColor=none;fontSize=16;fontColor=#181819;align=left;spacing=15;" vertex="1" parent="o-kv4E1F0-MMt4d27I2c-1">
          <mxGeometry y="121" width="1100" height="79" as="geometry" />
        </mxCell>
        <mxCell id="DFqRTnD5uFk7oRwz69hL-137" value="Search" style="html=1;shadow=0;dashed=0;shape=mxgraph.bootstrap.rrect;rSize=5;fontSize=14;fontColor=#6C767D;strokeColor=#CED4DA;fillColor=#ffffff;align=left;spacing=10;" vertex="1" parent="DFqRTnD5uFk7oRwz69hL-136">
          <mxGeometry width="470" height="40" relative="1" as="geometry">
            <mxPoint x="315" y="19.5" as="offset" />
          </mxGeometry>
        </mxCell>
        <mxCell id="DFqRTnD5uFk7oRwz69hL-179" value="" style="ellipse;whiteSpace=wrap;html=1;fillColor=#FFFFFF;" vertex="1" parent="DFqRTnD5uFk7oRwz69hL-136">
          <mxGeometry x="719.2196116504854" y="33.65" width="10.776699029126211" height="13.166666666666666" as="geometry" />
        </mxCell>
        <mxCell id="DFqRTnD5uFk7oRwz69hL-183" value="" style="triangle;whiteSpace=wrap;html=1;rotation=90;fillColor=#000000;" vertex="1" parent="DFqRTnD5uFk7oRwz69hL-136">
          <mxGeometry x="749.999708737864" y="32.916666666666664" width="10.776699029126211" height="13.166666666666666" as="geometry" />
        </mxCell>
        <mxCell id="DFqRTnD5uFk7oRwz69hL-141" value="" style="shape=ellipse;dashed=0;strokeColor=none;shadow=1;fontSize=13;align=center;verticalAlign=top;labelPosition=center;verticalLabelPosition=bottom;html=1;aspect=fixed;fillColor=#FFFFFF;" vertex="1" parent="o-kv4E1F0-MMt4d27I2c-1">
          <mxGeometry x="810" y="140.5" width="40" height="40" as="geometry" />
        </mxCell>
        <mxCell id="DFqRTnD5uFk7oRwz69hL-142" value="" style="dashed=0;html=1;shape=mxgraph.gmdl.plus;strokeColor=#737373;strokeWidth=2;shadow=0;" vertex="1" parent="DFqRTnD5uFk7oRwz69hL-141">
          <mxGeometry x="12" y="12" width="16" height="16" as="geometry" />
        </mxCell>
        <mxCell id="DFqRTnD5uFk7oRwz69hL-143" value="" style="html=1;shadow=0;dashed=0;shape=mxgraph.bootstrap.rrect;rSize=5;strokeColor=#DFDFDF;html=1;whiteSpace=wrap;fillColor=#FFFFFF;fontColor=#495057;" vertex="1" parent="o-kv4E1F0-MMt4d27I2c-1">
          <mxGeometry y="240" width="310" height="300" as="geometry" />
        </mxCell>
        <mxCell id="DFqRTnD5uFk7oRwz69hL-144" value="&lt;font style=&quot;font-size: 16px&quot;&gt;&lt;b&gt;IDL Reminder Email&lt;/b&gt;&lt;/font&gt;&lt;br&gt;Recipient: EMAIL&lt;br&gt;Time: June 11th, 2026 06:00:00" style="html=1;shadow=0;dashed=0;shape=mxgraph.bootstrap.topButton;rSize=5;perimeter=none;whiteSpace=wrap;resizeWidth=1;align=left;spacing=10;verticalAlign=top;fillColor=#0085FC;strokeColor=#0085FC;fontColor=#ffffff;" vertex="1" parent="DFqRTnD5uFk7oRwz69hL-143">
          <mxGeometry width="310" height="100" relative="1" as="geometry" />
        </mxCell>
        <mxCell id="DFqRTnD5uFk7oRwz69hL-145" value="&lt;span style=&quot;font-size: 16px&quot;&gt;Send Test Data To Dev&lt;/span&gt;&lt;br&gt;Recipient: SQS&lt;br&gt;Time: DAILY 03:00:00" style="strokeColor=inherit;fillColor=inherit;gradientColor=inherit;fontColor=inherit;html=1;shadow=0;dashed=0;perimeter=none;whiteSpace=wrap;resizeWidth=1;align=left;spacing=10;" vertex="1" parent="DFqRTnD5uFk7oRwz69hL-143">
          <mxGeometry width="310" height="100" relative="1" as="geometry">
            <mxPoint y="100" as="offset" />
          </mxGeometry>
        </mxCell>
        <mxCell id="DFqRTnD5uFk7oRwz69hL-146" value="&lt;span style=&quot;font-size: 16px&quot;&gt;Message Me Test&lt;/span&gt;&lt;br&gt;Recipient: Skype&lt;br&gt;Time: WEEKLY TUESDAY 08:00:00" style="strokeColor=inherit;fillColor=inherit;gradientColor=inherit;fontColor=inherit;html=1;shadow=0;dashed=0;shape=mxgraph.bootstrap.bottomButton;rSize=5;perimeter=none;whiteSpace=wrap;resizeWidth=1;resizeHeight=0;align=left;spacing=10;" vertex="1" parent="DFqRTnD5uFk7oRwz69hL-143">
          <mxGeometry y="1" width="310" height="100" relative="1" as="geometry">
            <mxPoint y="-100" as="offset" />
          </mxGeometry>
        </mxCell>
        <mxCell id="DFqRTnD5uFk7oRwz69hL-147" value="&#xa;IDL Reminder Email" style="shape=rect;fillColor=#ffffff;strokeColor=#eeeeee;shadow=1;fontColor=#000000;fontSize=23;fontStyle=0;verticalAlign=top;spacingBottom=0;spacingLeft=16;spacingTop=20;align=left;rounded=0;" vertex="1" parent="o-kv4E1F0-MMt4d27I2c-1">
          <mxGeometry x="320" y="200" width="770" height="610" as="geometry" />
        </mxCell>
        <mxCell id="DFqRTnD5uFk7oRwz69hL-149" value="Description:&#xa;&#xa;Recipient List:&#xa;&#xa;Time:&#xa;&#xa;Message:" style="text;whiteSpace=wrap;fontSize=13;spacing=16;spacingTop=-4;resizeWidth=1;resizeHeight=1;fontStyle=1" vertex="1" parent="DFqRTnD5uFk7oRwz69hL-147">
          <mxGeometry width="132.75862068965517" height="406.67" relative="1" as="geometry">
            <mxPoint x="5" y="100" as="offset" />
          </mxGeometry>
        </mxCell>
        <mxCell id="DFqRTnD5uFk7oRwz69hL-152" value="&amp;lt;Classification Here&amp;gt;" style="rounded=0;whiteSpace=wrap;html=1;shadow=0;sketch=0;fontSize=12;align=center;fillColor=#FFFF33;" vertex="1" parent="DFqRTnD5uFk7oRwz69hL-147">
          <mxGeometry y="5.65" width="770" height="22.59" as="geometry" />
        </mxCell>
        <mxCell id="DFqRTnD5uFk7oRwz69hL-189" value="This a reminder to ping the IDL team.&#xa;&#xa;kimmela@place.org, hoggeb@place.org, devs@place.org&#xa;&#xa;June 11th, 2026 06:00:00&#xa;&#xa;Contact IDL. They said the auto dataset creation would be done today." style="text;whiteSpace=wrap;fontSize=13;spacing=16;spacingTop=-4;resizeWidth=1;resizeHeight=1;fontStyle=0" vertex="1" parent="DFqRTnD5uFk7oRwz69hL-147">
          <mxGeometry x="132.75862068965517" y="101.66" width="548.735632183908" height="398.34" as="geometry" />
        </mxCell>
        <mxCell id="DFqRTnD5uFk7oRwz69hL-164" value="Notifications" style="text;html=1;strokeColor=none;fillColor=none;align=left;verticalAlign=middle;whiteSpace=wrap;rounded=0;labelPosition=center;verticalLabelPosition=middle;fontSize=16;fontStyle=1;fontColor=#FFFFFF;" vertex="1" parent="o-kv4E1F0-MMt4d27I2c-1">
          <mxGeometry x="7" y="210" width="260" height="20" as="geometry" />
        </mxCell>
        <mxCell id="DFqRTnD5uFk7oRwz69hL-165" value="" style="shape=ellipse;dashed=0;strokeColor=none;shadow=1;fontSize=13;align=center;verticalAlign=top;labelPosition=center;verticalLabelPosition=bottom;html=1;aspect=fixed;fillColor=#F8F9FA;" vertex="1" parent="o-kv4E1F0-MMt4d27I2c-1">
          <mxGeometry x="957" y="250" width="30" height="30" as="geometry" />
        </mxCell>
        <mxCell id="DFqRTnD5uFk7oRwz69hL-166" value="" style="dashed=0;html=1;shape=mxgraph.gmdl.edit;strokeColor=none;fillColor=#737373;shadow=0;" vertex="1" parent="DFqRTnD5uFk7oRwz69hL-165">
          <mxGeometry x="9.642857142857142" y="9.642857142857142" width="10.714285714285714" height="10.714285714285714" as="geometry" />
        </mxCell>
        <mxCell id="DFqRTnD5uFk7oRwz69hL-167" value="" style="shape=ellipse;dashed=0;strokeColor=none;shadow=1;fontSize=13;align=center;verticalAlign=top;labelPosition=center;verticalLabelPosition=bottom;html=1;aspect=fixed;fillColor=#F8F9FA;" vertex="1" parent="o-kv4E1F0-MMt4d27I2c-1">
          <mxGeometry x="1040" y="250" width="30" height="30" as="geometry" />
        </mxCell>
        <mxCell id="DFqRTnD5uFk7oRwz69hL-168" value="" style="dashed=0;html=1;shape=mxgraph.gmdl.x;strokeColor=#737373;strokeWidth=2;shadow=0;" vertex="1" parent="DFqRTnD5uFk7oRwz69hL-167">
          <mxGeometry x="10.714285714285714" y="10.714285714285714" width="8.571428571428571" height="8.571428571428571" as="geometry" />
        </mxCell>
        <mxCell id="DFqRTnD5uFk7oRwz69hL-169" value="" style="shape=ellipse;dashed=0;strokeColor=none;shadow=1;fontSize=13;align=center;verticalAlign=top;labelPosition=center;verticalLabelPosition=bottom;html=1;aspect=fixed;rounded=1;sketch=0;fillColor=#F8F9FA;" vertex="1" parent="o-kv4E1F0-MMt4d27I2c-1">
          <mxGeometry x="1000" y="250" width="30" height="30" as="geometry" />
        </mxCell>
        <mxCell id="DFqRTnD5uFk7oRwz69hL-170" value="" style="dashed=0;html=1;shape=mxgraph.gmdl.star;strokeColor=none;fillColor=#737373;shadow=0;" vertex="1" parent="DFqRTnD5uFk7oRwz69hL-169">
          <mxGeometry x="9.642857142857142" y="9.642857142857142" width="10.714285714285714" height="10.714285714285714" as="geometry" />
        </mxCell>
        <mxCell id="DFqRTnD5uFk7oRwz69hL-171" value="" style="shape=image;html=1;verticalAlign=top;verticalLabelPosition=bottom;labelBackgroundColor=#ffffff;imageAspect=0;aspect=fixed;image=https://cdn2.iconfinder.com/data/icons/font-awesome/1792/sort-alpha-asc-128.png;rounded=1;shadow=1;sketch=0;strokeColor=#000000;fillColor=#4285F4;fontSize=11;align=left;fontColor=#97D077;" vertex="1" parent="o-kv4E1F0-MMt4d27I2c-1">
          <mxGeometry x="221.5" y="211" width="15" height="15" as="geometry" />
        </mxCell>
        <mxCell id="DFqRTnD5uFk7oRwz69hL-172" value="" style="shape=image;html=1;verticalAlign=top;verticalLabelPosition=bottom;labelBackgroundColor=#ffffff;imageAspect=0;aspect=fixed;image=https://cdn4.iconfinder.com/data/icons/ios-web-user-interface-multi-circle-flat-vol-5/512/Descending_filter_filtering_tool_funnel_sort-128.png;rounded=1;shadow=1;sketch=0;strokeColor=#000000;fillColor=#4285F4;fontSize=11;fontColor=#000000;align=left;" vertex="1" parent="o-kv4E1F0-MMt4d27I2c-1">
          <mxGeometry x="244" y="211" width="15" height="15" as="geometry" />
        </mxCell>
        <mxCell id="DFqRTnD5uFk7oRwz69hL-173" value="" style="fillColor=#36B37E;strokeColor=none;rounded=1;arcSize=50;shadow=1;sketch=0;fontSize=11;fontColor=#FFFFFF;align=left;" vertex="1" parent="o-kv4E1F0-MMt4d27I2c-1">
          <mxGeometry x="270" y="210" width="30" height="16" as="geometry" />
        </mxCell>
        <mxCell id="DFqRTnD5uFk7oRwz69hL-174" value="" style="shape=ellipse;strokeColor=none;fillColor=#ffffff" vertex="1" parent="DFqRTnD5uFk7oRwz69hL-173">
          <mxGeometry x="1" y="0.5" width="12" height="12" relative="1" as="geometry">
            <mxPoint x="-15" y="-6" as="offset" />
          </mxGeometry>
        </mxCell>
        <mxCell id="DFqRTnD5uFk7oRwz69hL-175" value="" style="html=1;shadow=0;dashed=0;shape=mxgraph.atlassian.check;strokeColor=#ffffff" vertex="1" parent="DFqRTnD5uFk7oRwz69hL-173">
          <mxGeometry y="0.5" width="6" height="5" relative="1" as="geometry">
            <mxPoint x="4" y="-3" as="offset" />
          </mxGeometry>
        </mxCell>
        <mxCell id="DFqRTnD5uFk7oRwz69hL-182" value="" style="endArrow=none;html=1;fontColor=#000000;entryX=1;entryY=1;entryDx=0;entryDy=0;" edge="1" parent="o-kv4E1F0-MMt4d27I2c-1" target="DFqRTnD5uFk7oRwz69hL-179">
          <mxGeometry width="50" height="50" relative="1" as="geometry">
            <mxPoint x="740" y="170" as="sourcePoint" />
            <mxPoint x="990" y="420" as="targetPoint" />
          </mxGeometry>
        </mxCell>
      </root>
    </mxGraphModel>
  </diagram>
</mxfile>
